# xmcd
#
# Track frame offsets: 
#        150
#        16562
#        34151
#        46895
#        60540
#        75413
#        90320
#        105069
#        122178
#        135747
#        138944
#        153219
#        166887
#        179891
#        196247
#        211562
#        231676
#
# Disc length: 3306 seconds
#
# Revision: 0
# Processed by: cddbd v1.5.2PL0 Copyright (c) Steve Scherf et al.
# Submitted via: ExactAudioCopy v0.95b3
#
DISCID=ce0ce811
DTITLE=Spicewood Seven - Kakistocracy
DYEAR=2006
DGENRE=Country
TTITLE0=Mercury's in Retrograde
TTITLE1=Iraqi Soldier Blues
TTITLE2=Crawford, Texas
TTITLE3=Poor Boy
TTITLE4=Easy Answers
TTITLE5=Going Down the Road to Bagdad
TTITLE6=21 Guns (For Cindy Sheehan)
TTITLE7=Mr. President
TTITLE8=Crystal Time
TTITLE9=Garth's Dox
TTITLE10=Dying Planet
TTITLE11=Chinese Murder Mystery
TTITLE12=400 Years
TTITLE13=Trumpets Goin' Round
TTITLE14=Halfmast
TTITLE15=America, What Happened to You?
TTITLE16=Prayer for the Living and the Dead
EXTD=
EXTT0=
EXTT1=
EXTT2=
EXTT3=
EXTT4=
EXTT5=
EXTT6=
EXTT7=
EXTT8=
EXTT9=
EXTT10=
EXTT11=
EXTT12=
EXTT13=
EXTT14=
EXTT15=
EXTT16=
PLAYORDER=
